<svg width="18" height="18" viewBox="0 0 18 18" fill="none" xmlns="http://www.w3.org/2000/svg">
<path d="M1 9.14164L3.09283 7.09701M17 9.14164L14.8535 7.09701M3.09283 7.09701L8.2859 2.02355C8.62786 1.68946 9.17293 1.68601 9.5191 2.01575L14.8535 7.09701M3.09283 7.09701V15.4747C3.09283 15.9652 3.49046 16.3629 3.98096 16.3629H13.9654C14.4559 16.3629 14.8535 15.9652 14.8535 15.4747V7.09701" stroke="#4FB84F" stroke-width="1.59863" stroke-linecap="round"/>
<path d="M12.6119 1.53291C12.6119 1.23861 12.8505 1.00003 13.1448 1.00003H14.2394C14.5337 1.00003 14.7723 1.23861 14.7723 1.53291V5.93316C14.7723 6.31395 14.3844 6.57185 14.0333 6.42455L13.0452 6.01007C12.8619 5.9332 12.7367 5.76075 12.7202 5.56271L12.6119 4.25667V1.53291Z" fill="#4FB84F"/>
<rect x="6.67065" y="10.062" width="4.4557" height="6.93805" rx="0.532878" fill="#4FB84F"/>
</svg>
