<svg width="16" height="16" viewBox="0 0 16 16" fill="none" xmlns="http://www.w3.org/2000/svg">
<path fill-rule="evenodd" clip-rule="evenodd" d="M9.0432 0.589996C8.2678 -0.196666 7.01064 -0.196665 6.23525 0.589997L0.581546 6.32585C-0.193849 7.11251 -0.193848 8.38794 0.581547 9.1746L6.23525 14.9105C7.01064 15.6971 8.26781 15.6971 9.0432 14.9105L14.6969 9.1746C15.4723 8.38794 15.4723 7.11251 14.6969 6.32585L9.0432 0.589996ZM10.2566 6.26535C10.4833 6.46448 10.4833 6.81745 10.2566 7.01658L8.75264 8.338C8.42957 8.62185 7.92262 8.39244 7.92262 7.96238V7.14097H6.16119C5.88505 7.14097 5.6612 7.36483 5.6612 7.64097V9.90956C5.6612 10.1857 5.43734 10.4096 5.1612 10.4096C4.88505 10.4096 4.6612 10.1857 4.6612 9.90956V7.64097C4.6612 6.81254 5.33277 6.14097 6.16119 6.14097H7.92262V5.31954C7.92262 4.88948 8.42957 4.66007 8.75264 4.94393L10.2566 6.26535Z" fill="white"/>
</svg>
