<svg width="24" height="15" viewBox="0 0 24 15" fill="none" xmlns="http://www.w3.org/2000/svg">
<path fill-rule="evenodd" clip-rule="evenodd" d="M8.42011 11.625H15.7512C16.1637 11.625 16.5517 11.8196 16.8001 12.1489C17.6757 13.3102 18.3062 14.086 19.4806 14.8199C19.6752 14.9415 19.902 15 20.1315 15H21.5619C21.7477 15 21.9326 14.9621 22.099 14.8794C22.6895 14.5859 23.0677 14.2836 23.3622 13.8617C23.832 13.1888 23.9062 12.3298 23.9062 11.5091C23.9062 10.7785 23.7877 10.0521 23.5699 9.35468C23.3814 8.75116 23.208 8.17394 23.0429 7.62409C21.663 3.02952 20.8568 0.345392 16.5938 0.1875L14.1562 0H10.0312L7.5 0.1875C3.31627 0.407696 2.69539 2.29439 1.36324 6.34248C1.09433 7.15965 0.796427 8.0649 0.434383 9.0623C0.15609 9.82897 0 10.6372 0 11.4528C0 12.2485 0.0866258 13.0726 0.524639 13.7369C0.86485 14.2528 1.27749 14.5696 1.89847 14.8777C2.06668 14.9612 2.25342 15 2.4412 15H3.80005C4.01346 15 4.22451 14.9494 4.41022 14.8442C5.65554 14.1391 6.37971 13.3822 7.38465 12.1265C7.63664 11.8117 8.01682 11.625 8.42011 11.625ZM7.5 3.75C7.5 3.33578 7.83579 3 8.25 3C8.66421 3 9 3.33578 9 3.75V5.0625H10.3125C10.7267 5.0625 11.0625 5.39828 11.0625 5.8125C11.0625 6.22671 10.7267 6.5625 10.3125 6.5625H9V7.875C9 8.28921 8.66421 8.625 8.25 8.625C7.83579 8.625 7.5 8.28921 7.5 7.875V6.5625H6.18752C5.77331 6.5625 5.43752 6.22671 5.43752 5.8125C5.43752 5.39828 5.77331 5.0625 6.18752 5.0625H7.5V3.75ZM15.9375 6.9375C15.9375 7.55882 15.4339 8.0625 14.8125 8.0625C14.1912 8.0625 13.6875 7.55882 13.6875 6.9375C13.6875 6.31618 14.1912 5.8125 14.8125 5.8125C15.4339 5.8125 15.9375 6.31618 15.9375 6.9375ZM17.25 5.625C17.8713 5.625 18.375 5.12132 18.375 4.5C18.375 3.87868 17.8713 3.375 17.25 3.375C16.6287 3.375 16.125 3.87868 16.125 4.5C16.125 5.12132 16.6287 5.625 17.25 5.625Z" fill="white"/>
</svg>
