<svg width="54" height="54" viewBox="0 0 54 54" fill="none" xmlns="http://www.w3.org/2000/svg">
<path d="M38.4206 23.655C39.6562 22.4193 39.6562 20.4306 39.6562 16.4531C39.6562 12.4756 39.6562 10.4869 38.4206 9.25128M38.4206 23.655C37.1849 24.8906 35.1962 24.8906 31.2188 24.8906H22.7812C18.8038 24.8906 16.815 24.8906 15.5794 23.655M38.4206 9.25128C37.1849 8.01562 35.1962 8.01562 31.2188 8.01562H22.7812C18.8038 8.01562 16.815 8.01562 15.5794 9.25128M15.5794 9.25128C14.3438 10.4869 14.3438 12.4756 14.3438 16.4531C14.3438 20.4306 14.3438 22.4193 15.5794 23.655" stroke="#045433" stroke-width="3.375"/>
<path d="M29.1094 16.4531C29.1094 17.6181 28.165 18.5625 27 18.5625C25.835 18.5625 24.8906 17.6181 24.8906 16.4531C24.8906 15.2882 25.835 14.3438 27 14.3438C28.165 14.3438 29.1094 15.2882 29.1094 16.4531Z" stroke="#045433" stroke-width="3.375"/>
<path d="M39.6562 14.3438C36.1612 14.3438 33.3281 11.5105 33.3281 8.01562" stroke="#045433" stroke-width="3.375" stroke-linecap="round"/>
<path d="M39.6562 18.5625C36.1612 18.5625 33.3281 21.3957 33.3281 24.8906" stroke="#045433" stroke-width="3.375" stroke-linecap="round"/>
<path d="M14.3438 14.3438C17.8387 14.3438 20.6719 11.5105 20.6719 8.01562" stroke="#045433" stroke-width="3.375" stroke-linecap="round"/>
<path d="M14.3438 18.5625C17.8387 18.5625 20.6719 21.3957 20.6719 24.8906" stroke="#045433" stroke-width="3.375" stroke-linecap="round"/>
<path d="M12.2344 44.6943H17.0014C19.1337 44.6943 21.2889 44.9164 23.3641 45.344C27.035 46.1002 30.8998 46.1917 34.6083 45.5916C36.4369 45.2954 38.2345 44.843 39.8619 44.0574C41.3309 43.3485 43.1302 42.3491 44.3389 41.2296C45.5458 40.1119 46.8028 38.2824 47.6949 36.8522C48.4599 35.6261 48.0899 34.1217 46.8798 33.2079C45.5357 32.1931 43.5411 32.1933 42.1972 33.2085L38.3851 36.088C36.9077 37.2041 35.2941 38.2314 33.3716 38.5381C33.1404 38.575 32.8982 38.6085 32.6455 38.6378M32.6455 38.6378C32.5694 38.6467 32.4924 38.6551 32.4143 38.6631M32.6455 38.6378C32.9531 38.572 33.2583 38.3822 33.545 38.1322C34.9017 36.948 34.9874 34.9523 33.8101 33.63C33.5372 33.3233 33.2174 33.0674 32.8622 32.8554C26.9614 29.3359 17.7808 32.0165 12.2344 35.9499M32.6455 38.6378C32.5685 38.6543 32.4913 38.6631 32.4143 38.6631M32.4143 38.6631C31.3103 38.7764 30.0189 38.8057 28.5858 38.6703" stroke="#045433" stroke-width="3.375" stroke-linecap="round"/>
<path d="M9.07031 31.2188C9.07031 31.2188 12.2344 31.2188 12.2344 34.3828V44.9297C12.2344 44.9297 12.2344 48.0938 9.07031 48.0938C5.90625 48.0938 5.90625 48.0938 5.90625 44.9297V34.3828C5.90625 34.3828 5.90625 31.2188 9.07031 31.2188Z" stroke="#045433" stroke-width="3.375"/>
</svg>
