<svg width="268" height="271" viewBox="0 0 268 271" fill="none" xmlns="http://www.w3.org/2000/svg">
<g clip-path="url(#clip0_1_236)">
<path opacity="0.1" d="M268 146.096C268 168.77 261.929 190.041 251.324 208.372C249.409 211.683 247.346 214.897 245.144 218.008C225.838 245.263 195.855 264.481 161.247 269.627C157.336 270.21 153.37 270.611 149.349 270.824C147.103 270.945 144.84 271.006 142.564 271.006C73.2862 271.006 17.1272 215.085 17.1272 146.102C17.1272 77.1187 73.2862 21.192 142.564 21.192C211.841 21.192 268 77.1127 268 146.096Z" fill="#4FB84F"/>
<path opacity="0.2" d="M236.308 146.096C236.308 160.35 233.099 173.856 227.363 185.934C226.277 188.219 225.106 190.455 223.843 192.636C223.428 193.353 223.007 194.057 222.574 194.762C221.512 196.494 220.389 198.183 219.218 199.842C204.788 220.213 182.383 234.576 156.518 238.422C154.974 238.653 153.418 238.841 151.85 238.999C150.453 239.139 149.044 239.242 147.628 239.321C145.95 239.412 144.26 239.455 142.558 239.455C142.167 239.455 141.777 239.455 141.386 239.449C90.1571 238.817 48.8127 197.265 48.8127 146.096C48.8127 94.5377 90.7856 52.743 142.564 52.743C194.342 52.743 236.308 94.5377 236.308 146.096Z" fill="#4FB84F"/>
<path d="M195.403 151.528C195.446 152.439 195.44 153.35 195.397 154.262C195.104 160.319 192.951 166.237 189.125 171.104C187.276 173.455 185.031 175.563 182.413 177.319L154.431 196.093C140.941 205.146 122.471 201.561 113.386 188.128L82.823 145.592C73.7377 132.158 94.4343 121.781 107.925 112.728L134.686 96.6217C148.177 87.5689 158.739 89.6225 167.83 103.05L171.302 108.178L190.424 136.436C193.548 141.071 195.172 146.297 195.403 151.528Z" fill="#F8A697"/>
<path d="M117.626 80.3267L114.948 82.9939C111.751 86.1776 106.863 86.7062 103.105 84.5797C102.354 84.1544 101.652 83.6258 101.012 82.9939L96.9115 78.9111L78.6006 60.6779C77.4352 59.5175 76.6176 58.1261 76.1661 56.6497C75.8061 55.4771 75.6658 54.2559 75.7512 53.0469C75.9099 50.7685 76.8556 48.5387 78.5945 46.8071L81.2731 44.1338C85.1049 40.3244 91.3713 40.3244 95.2031 44.1338L104.154 53.0469L117.62 66.4559C121.458 70.2714 121.458 76.5112 117.626 80.3267Z" fill="#F58A8A"/>
<path d="M174.701 41.6002V158.91C174.701 162.768 173.34 166.31 171.089 169.026C168.386 172.3 164.395 174.378 159.971 174.378H112.507C104.966 174.378 98.6993 168.339 97.8756 160.641C97.8146 160.07 97.7841 159.493 97.7841 158.91V41.6002C97.7841 33.0943 104.41 26.1315 112.507 26.1315H159.971C168.074 26.1315 174.701 33.0943 174.701 41.6002Z" fill="#193151"/>
<path d="M171.87 44.2067V156.303C171.87 159.991 170.607 163.369 168.526 165.97C166.024 169.099 162.333 171.085 158.233 171.085H114.283C107.303 171.085 101.5 165.319 100.737 157.956C100.682 157.415 100.652 156.862 100.652 156.303V44.2067C100.652 36.0774 106.784 29.4246 114.283 29.4246H158.233C165.731 29.4246 171.87 36.0774 171.87 44.2067Z" fill="white"/>
<path opacity="0.57" d="M171.851 44.1824V156.279C171.851 159.967 170.588 163.345 168.508 165.945C166.006 169.074 162.314 171.061 158.214 171.061H114.264C107.284 171.061 101.482 165.295 100.719 157.931C100.664 157.391 100.634 156.838 100.634 156.279V44.1824C100.634 36.0531 106.766 29.4003 114.264 29.4003H158.214C165.713 29.4003 171.851 36.0531 171.851 44.1824Z" fill="#4FB84F"/>
<path d="M150.483 28.896V30.1962C150.483 32.6933 148.897 34.7408 146.957 34.7408H125.223C123.283 34.7408 121.696 32.6933 121.696 30.1962V28.9021H150.483V28.896Z" fill="#193151"/>
<g opacity="0.57">
<path d="M119.842 67.0704C122.46 64.4628 122.46 60.2351 119.842 57.6275C117.223 55.0199 112.977 55.0199 110.358 57.6275C107.74 60.2351 107.74 64.4628 110.358 67.0704C112.977 69.6779 117.223 69.6779 119.842 67.0704Z" fill="#74C057"/>
<path d="M116.706 61.2957C117.612 60.3941 117.612 58.9322 116.706 58.0306C115.801 57.129 114.333 57.129 113.427 58.0306C112.522 58.9322 112.522 60.3941 113.427 61.2957C114.333 62.1973 115.801 62.1973 116.706 61.2957Z" fill="#4FB84F"/>
<path d="M118.774 66.1946H111.439C111.439 66.1946 110.976 65.8848 111.293 65.1739C111.61 64.4631 112.367 63.0474 112.367 63.0474L112.379 63.0414C112.556 62.5735 113.001 62.2272 113.544 62.1422C113.99 62.4156 114.509 62.5675 115.07 62.5675C115.631 62.5675 116.162 62.4095 116.607 62.13C117.181 62.1908 117.651 62.5553 117.834 63.0353L117.846 63.0414C117.846 63.0414 118.603 64.457 118.92 65.1678C119.237 65.8787 118.774 66.1946 118.774 66.1946Z" fill="#4FB84F"/>
<path d="M159.965 69.3661H128.133C127.035 69.3661 126.138 68.473 126.138 67.3794C126.138 66.2858 127.035 65.3926 128.133 65.3926H159.965C161.064 65.3926 161.961 66.2858 161.961 67.3794C161.961 68.4669 161.064 69.3661 159.965 69.3661Z" fill="#74C057"/>
<path d="M159.965 76.8028H128.133C127.035 76.8028 126.138 75.9097 126.138 74.816C126.138 73.7224 127.035 72.8293 128.133 72.8293H159.965C161.064 72.8293 161.961 73.7224 161.961 74.816C161.961 75.9097 161.064 76.8028 159.965 76.8028Z" fill="#74C057"/>
<path d="M129.268 56.589L130.232 58.5454L132.398 58.8552L130.83 60.3741L131.203 62.5189L129.268 61.5042L127.334 62.5189L127.7 60.3741L126.138 58.8552L128.298 58.5454L129.268 56.589Z" fill="#FEC12B"/>
<path d="M137.066 56.589L138.036 58.5454L140.196 58.8552L138.628 60.3741L139 62.5189L137.066 61.5042L135.132 62.5189L135.504 60.3741L133.936 58.8552L136.096 58.5454L137.066 56.589Z" fill="#FEC12B"/>
<path d="M144.693 56.589L145.657 58.5454L147.823 58.8552L146.255 60.3741L146.627 62.5189L144.693 61.5042L142.759 62.5189L143.125 60.3741L141.563 58.8552L143.723 58.5454L144.693 56.589Z" fill="#FEC12B"/>
<path d="M152.338 56.589L153.309 58.5454L155.468 58.8552L153.906 60.3741L154.273 62.5189L152.338 61.5042L150.404 62.5189L150.776 60.3741L149.208 58.8552L151.374 58.5454L152.338 56.589Z" fill="#FEC12B"/>
<path d="M159.965 56.589L160.935 58.5454L163.095 58.8552L161.527 60.3741L161.9 62.5189L159.965 61.5042L158.031 62.5189L158.403 60.3741L156.835 58.8552L159.001 58.5454L159.965 56.589Z" fill="#FEC12B"/>
<path d="M119.839 104.345C122.458 101.738 122.458 97.5101 119.839 94.9025C117.22 92.2949 112.975 92.2949 110.356 94.9025C107.737 97.5101 107.737 101.738 110.356 104.345C112.975 106.953 117.22 106.953 119.839 104.345Z" fill="#74C057"/>
<path d="M116.708 98.575C117.614 97.6734 117.614 96.2116 116.708 95.31C115.803 94.4084 114.335 94.4084 113.429 95.31C112.524 96.2116 112.524 97.6734 113.429 98.575C114.335 99.4766 115.803 99.4766 116.708 98.575Z" fill="#4FB84F"/>
<path d="M118.774 103.469H111.439C111.439 103.469 110.976 103.159 111.293 102.448C111.61 101.737 112.367 100.322 112.367 100.322L112.379 100.316C112.556 99.8479 113.001 99.5016 113.544 99.4165C113.99 99.69 114.509 99.8418 115.07 99.8418C115.631 99.8418 116.162 99.6839 116.607 99.4044C117.181 99.4651 117.651 99.8297 117.834 100.31L117.846 100.316C117.846 100.316 118.603 101.731 118.92 102.442C119.237 103.159 118.774 103.469 118.774 103.469Z" fill="#4FB84F"/>
<path d="M159.965 106.641H128.133C127.035 106.641 126.138 105.747 126.138 104.654C126.138 103.56 127.035 102.667 128.133 102.667H159.965C161.064 102.667 161.961 103.56 161.961 104.654C161.961 105.747 161.064 106.641 159.965 106.641Z" fill="#74C057"/>
<path d="M150.636 114.077H127.847C126.907 114.077 126.138 113.312 126.138 112.376V111.799C126.138 110.863 126.907 110.098 127.847 110.098H150.636C151.576 110.098 152.344 110.863 152.344 111.799V112.376C152.338 113.318 151.57 114.077 150.636 114.077Z" fill="#74C057"/>
<path d="M129.268 93.8694L130.232 95.8197L132.398 96.1357L130.83 97.6546L131.203 99.7993L129.268 98.7847L127.334 99.7993L127.7 97.6546L126.138 96.1357L128.298 95.8197L129.268 93.8694Z" fill="#FEC12B"/>
<path d="M137.066 93.8694L138.036 95.8197L140.196 96.1357L138.628 97.6546L139 99.7993L137.066 98.7847L135.132 99.7993L135.504 97.6546L133.936 96.1357L136.096 95.8197L137.066 93.8694Z" fill="#FEC12B"/>
<path d="M144.693 93.8694L145.657 95.8197L147.823 96.1357L146.255 97.6546L146.627 99.7993L144.693 98.7847L142.759 99.7993L143.125 97.6546L141.563 96.1357L143.723 95.8197L144.693 93.8694Z" fill="#FEC12B"/>
<path d="M152.338 93.8694L153.309 95.8197L155.468 96.1357L153.906 97.6546L154.273 99.7993L152.338 98.7847L150.404 99.7993L150.776 97.6546L149.208 96.1357L151.374 95.8197L152.338 93.8694Z" fill="#74C057"/>
<path d="M159.965 93.8694L160.935 95.8197L163.095 96.1357L161.527 97.6546L161.9 99.7993L159.965 98.7847L158.031 99.7993L158.403 97.6546L156.835 96.1357L159.001 95.8197L159.965 93.8694Z" fill="#74C057"/>
<path d="M115.802 144.127C119.506 144.127 122.508 141.138 122.508 137.45C122.508 133.763 119.506 130.773 115.802 130.773C112.099 130.773 109.096 133.763 109.096 137.45C109.096 141.138 112.099 144.127 115.802 144.127Z" fill="#74C057"/>
<path d="M118.024 135.315C118.318 134.074 117.547 132.83 116.3 132.537C115.054 132.244 113.805 133.013 113.511 134.254C113.217 135.494 113.989 136.738 115.235 137.031C116.481 137.324 117.73 136.556 118.024 135.315Z" fill="#4FB84F"/>
<path d="M119.475 141.296H112.141C112.141 141.296 111.677 140.986 111.995 140.276C112.312 139.565 113.069 138.149 113.069 138.149L113.081 138.143C113.258 137.675 113.703 137.329 114.246 137.244C114.692 137.517 115.21 137.669 115.772 137.669C116.333 137.669 116.864 137.511 117.309 137.232C117.883 137.292 118.353 137.657 118.536 138.137L118.548 138.143C118.548 138.143 119.304 139.559 119.622 140.269C119.939 140.986 119.475 141.296 119.475 141.296Z" fill="#4FB84F"/>
<path d="M160.661 144.468H128.829C127.731 144.468 126.834 143.575 126.834 142.481C126.834 141.387 127.731 140.494 128.829 140.494H160.661C161.759 140.494 162.656 141.387 162.656 142.481C162.656 143.575 161.759 144.468 160.661 144.468Z" fill="#74C057"/>
<path d="M129.964 131.697L130.934 133.647L133.094 133.963L131.532 135.476L131.898 137.62L129.964 136.612L128.03 137.62L128.402 135.476L126.834 133.963L129 133.647L129.964 131.697Z" fill="#FEC12B"/>
<path d="M137.768 131.697L138.732 133.647L140.898 133.963L139.33 135.476L139.702 137.62L137.768 136.612L135.834 137.62L136.2 135.476L134.638 133.963L136.798 133.647L137.768 131.697Z" fill="#FEC12B"/>
<path d="M145.389 131.697L146.359 133.647L148.519 133.963L146.957 135.476L147.323 137.62L145.389 136.612L143.454 137.62L143.827 135.476L142.265 133.963L144.425 133.647L145.389 131.697Z" fill="#FEC12B"/>
<path d="M153.04 131.697L154.004 133.647L156.17 133.963L154.602 135.476L154.974 137.62L153.04 136.612L151.106 137.62L151.472 135.476L149.91 133.963L152.07 133.647L153.04 131.697Z" fill="#FEC12B"/>
<path d="M160.667 131.697L161.631 133.647L163.797 133.963L162.229 135.476L162.601 137.62L160.667 136.612L158.733 137.62L159.099 135.476L157.537 133.963L159.697 133.647L160.667 131.697Z" fill="#74C057"/>
<path d="M137.042 151.904H128.774C127.712 151.904 126.84 151.036 126.84 149.978V149.857C126.84 148.8 127.712 147.931 128.774 147.931H137.042C138.103 147.931 138.976 148.8 138.976 149.857V149.978C138.976 151.042 138.103 151.904 137.042 151.904Z" fill="#74C057"/>
</g>
<path opacity="0.43" d="M159.618 34.5221H152.863C152.363 34.5221 151.954 34.115 151.954 33.6168V33.5682C151.954 33.07 152.363 32.6629 152.863 32.6629H159.618C160.118 32.6629 160.527 33.07 160.527 33.5682V33.6168C160.533 34.115 160.118 34.5221 159.618 34.5221Z" fill="#193151"/>
<path opacity="0.43" d="M119.445 34.5221H115.692C115.302 34.5221 114.984 34.2062 114.984 33.8173V33.3616C114.984 32.9728 115.302 32.6569 115.692 32.6569H119.445C119.835 32.6569 120.153 32.9728 120.153 33.3616V33.8173C120.153 34.2062 119.835 34.5221 119.445 34.5221Z" fill="#193151"/>
<path d="M115.399 94.2096L113.3 97.3507C110.799 101.093 106.107 102.57 102.006 101.221C101.189 100.954 100.396 100.571 99.6451 100.079L93.3971 95.9351C93.391 95.929 93.3849 95.929 93.3788 95.923C92.012 95.0116 90.9503 93.8147 90.2181 92.4598C89.6324 91.3844 89.2541 90.2118 89.1016 89.0088C88.8087 86.7426 89.2968 84.3731 90.6575 82.3377L92.7564 79.1905C95.7584 74.7006 101.909 73.4733 106.412 76.4625L112.837 80.7216C117.199 83.7533 118.365 89.7744 115.399 94.2096Z" fill="#F8A697"/>
<path d="M114.984 117.036L113.563 120.536C111.867 124.704 107.571 127.091 103.282 126.593C102.507 126.502 101.738 126.326 100.981 126.04L88.9673 121.192C87.4358 120.572 86.1423 119.612 85.1477 118.427C84.3545 117.492 83.7504 116.422 83.3599 115.274C82.6155 113.117 82.6094 110.693 83.5369 108.427L84.9585 104.927C86.9599 100.006 92.5855 97.5695 97.5461 99.4287C97.5461 99.4287 97.5522 99.4287 97.5522 99.4347L109.548 104.271C114.576 106.288 117.022 112.03 114.984 117.036Z" fill="#F8A697"/>
<path d="M195.458 153.757C195.44 154.651 195.397 155.501 195.342 156.309C194.824 161.947 192.578 167.385 188.808 171.778C188.46 171.942 188.246 171.991 188.246 171.991L158.275 177.896C153.107 149.845 174.701 136.126 174.701 136.126V99.1977C176.659 87.8362 190.925 84.9989 193.152 86.0621C195.379 87.1254 195.47 91.5667 195.47 91.5667V151.212C195.483 152.099 195.483 152.949 195.458 153.757Z" fill="#F8A697"/>
<path d="M112.288 144.863L110.366 148.119C108.077 152.002 103.477 153.733 99.3033 152.615C98.5834 152.427 97.8817 152.147 97.2044 151.783L85.1172 144.711C83.6955 143.878 82.5545 142.736 81.743 141.418C81.0962 140.379 80.6569 139.23 80.4372 138.034C80.0162 135.792 80.3701 133.392 81.6148 131.283L83.5368 128.027C86.2276 123.476 92.0974 121.878 96.7224 124.375C96.7224 124.375 96.7285 124.375 96.7285 124.382L108.779 131.435C113.459 134.169 115.033 140.209 112.288 144.863Z" fill="#F8A697"/>
<path d="M222.58 194.762C221.518 196.494 220.396 198.183 219.224 199.842C204.794 220.213 182.389 234.576 156.524 238.422C154.98 238.653 153.424 238.841 151.856 238.999L132.941 211.057C131.929 209.563 132.331 207.515 133.832 206.507L197.588 163.703C199.089 162.695 201.145 163.096 202.158 164.59L222.58 194.762Z" fill="white"/>
<path d="M227.37 185.94C226.284 188.225 225.112 190.461 223.849 192.642C222.415 195.115 220.878 197.521 219.23 199.842C204.8 220.213 182.395 234.576 156.53 238.422C153.608 238.854 150.642 239.157 147.64 239.315C145.962 239.406 144.272 239.449 142.57 239.449C142.179 239.449 141.789 239.449 141.398 239.443L132.496 226.295C131.27 224.478 131.752 222 133.576 220.772L210.969 168.819C212.793 167.598 215.282 168.078 216.515 169.895L227.37 185.94Z" fill="#4FB84F"/>
<path d="M86.4229 26.5204V3.20189C86.4229 1.43994 84.9768 0 83.2073 0H3.21554C1.44608 0 0 1.43994 0 3.20189V36.0228C0 37.7847 1.44608 39.2246 3.21554 39.2246H83.2073H94.6844L86.4229 26.5204Z" fill="#4FB84F"/>
<path d="M14.4973 23.0937C19.5891 23.0937 23.7168 18.9835 23.7168 13.9133C23.7168 8.84316 19.5891 4.73297 14.4973 4.73297C9.40554 4.73297 5.27783 8.84316 5.27783 13.9133C5.27783 18.9835 9.40554 23.0937 14.4973 23.0937Z" fill="#74C057"/>
<path d="M14.4547 13.403C16.2171 13.403 17.6458 11.9803 17.6458 10.2254C17.6458 8.47044 16.2171 7.04779 14.4547 7.04779C12.6923 7.04779 11.2635 8.47044 11.2635 10.2254C11.2635 11.9803 12.6923 13.403 14.4547 13.403Z" fill="#4FB84F"/>
<path d="M19.5495 19.1992H9.46353C9.46353 19.1992 8.82897 18.7678 9.26218 17.7957C9.69539 16.8236 10.7388 14.8733 10.7388 14.8733L10.751 14.8672C10.995 14.2293 11.6052 13.7432 12.3557 13.6278C12.9658 13.9984 13.6797 14.2171 14.4485 14.2171C15.2234 14.2171 15.9495 13.9984 16.5597 13.6217C17.3468 13.7068 17.9936 14.205 18.2498 14.8672L18.2681 14.8794C18.2681 14.8794 19.3054 16.8297 19.7447 17.8018C20.184 18.7678 19.5495 19.1992 19.5495 19.1992Z" fill="#4FB84F"/>
<path d="M76.1844 23.5615H32.4116C30.9045 23.5615 29.6659 22.3342 29.6659 20.8274C29.6659 19.3267 30.8984 18.0934 32.4116 18.0934H76.1844C77.6915 18.0934 78.9301 19.3207 78.9301 20.8274C78.9301 22.3281 77.6976 23.5615 76.1844 23.5615Z" fill="#74C057"/>
<path d="M76.1844 33.7869H32.4116C30.9045 33.7869 29.6659 32.5596 29.6659 31.0528C29.6659 29.5522 30.8984 28.3188 32.4116 28.3188H76.1844C77.6915 28.3188 78.9301 29.5461 78.9301 31.0528C78.9301 32.5596 77.6976 33.7869 76.1844 33.7869Z" fill="#74C057"/>
<path d="M33.9736 5.9967L35.3038 8.68216L38.2752 9.11353L36.1275 11.1975L36.6339 14.1503L33.9736 12.7529L31.3133 14.1503L31.8259 11.1975L29.672 9.11353L32.6435 8.68216L33.9736 5.9967Z" fill="#FEC12B"/>
<path d="M44.7002 5.9967L46.0303 8.68216L49.0018 9.11353L46.854 11.1975L47.3605 14.1503L44.7002 12.7529L42.0399 14.1503L42.5463 11.1975L40.3986 9.11353L43.37 8.68216L44.7002 5.9967Z" fill="#FEC12B"/>
<path d="M55.1888 5.9967L56.519 8.68216L59.4904 9.11353L57.3366 11.1975L57.8491 14.1503L55.1888 12.7529L52.5285 14.1503L53.035 11.1975L50.8811 9.11353L53.8587 8.68216L55.1888 5.9967Z" fill="#FEC12B"/>
<path d="M65.7019 5.9967L67.032 8.68216L70.0035 9.11353L67.8557 11.1975L68.3622 14.1503L65.7019 12.7529L63.0416 14.1503L63.548 11.1975L61.4003 9.11353L64.3717 8.68216L65.7019 5.9967Z" fill="#FEC12B"/>
<path d="M76.1905 5.9967L77.5207 8.68216L80.4922 9.11353L78.3383 11.1975L78.8508 14.1503L76.1905 12.7529L73.5302 14.1503L74.0367 11.1975L71.8828 9.11353L74.8604 8.68216L76.1905 5.9967Z" fill="#FEC12B"/>
<path d="M86.4229 77.7809V54.4624C86.4229 52.7005 84.9768 51.2606 83.2073 51.2606H3.21554C1.44608 51.2606 0 52.7005 0 54.4624V87.2833C0 89.0453 1.44608 90.4852 3.21554 90.4852H83.2073H94.6844L86.4229 77.7809Z" fill="#4FB84F"/>
<path d="M14.4973 74.3482C19.5891 74.3482 23.7168 70.238 23.7168 65.1678C23.7168 60.0976 19.5891 55.9874 14.4973 55.9874C9.40554 55.9874 5.27783 60.0976 5.27783 65.1678C5.27783 70.238 9.40554 74.3482 14.4973 74.3482Z" fill="#74C057"/>
<path d="M14.4547 64.6574C16.2171 64.6574 17.6458 63.2348 17.6458 61.4798C17.6458 59.7249 16.2171 58.3022 14.4547 58.3022C12.6923 58.3022 11.2635 59.7249 11.2635 61.4798C11.2635 63.2348 12.6923 64.6574 14.4547 64.6574Z" fill="#4FB84F"/>
<path d="M19.5495 70.4597H9.46353C9.46353 70.4597 8.82897 70.0283 9.26218 69.0562C9.69539 68.0841 10.7388 66.1338 10.7388 66.1338L10.751 66.1277C10.995 65.4898 11.6052 65.0037 12.3557 64.8883C12.9658 65.2589 13.6797 65.4776 14.4485 65.4776C15.2234 65.4776 15.9495 65.2589 16.5597 64.8822C17.3468 64.9673 17.9936 65.4655 18.2498 66.1277L18.2681 66.1399C18.2681 66.1399 19.3054 68.0902 19.7447 69.0623C20.184 70.0283 19.5495 70.4597 19.5495 70.4597Z" fill="#4FB84F"/>
<path d="M76.1844 74.816H32.4116C30.9045 74.816 29.6659 73.5887 29.6659 72.082C29.6659 70.5813 30.8984 69.3479 32.4116 69.3479H76.1844C77.6915 69.3479 78.9301 70.5752 78.9301 72.082C78.9301 73.5887 77.6976 74.816 76.1844 74.816Z" fill="#74C057"/>
<path d="M63.3589 85.0475H32.015C30.7276 85.0475 29.672 83.9964 29.672 82.7144V81.9246C29.672 80.6426 30.7276 79.5915 32.015 79.5915H63.3528C64.6402 79.5915 65.6958 80.6426 65.6958 81.9246V82.7144C65.7019 83.9964 64.6463 85.0475 63.3589 85.0475Z" fill="#74C057"/>
<path d="M33.9736 57.2573L35.3038 59.9366L38.2752 60.368L36.1275 62.4581L36.6339 65.4048L33.9736 64.0134L31.3133 65.4048L31.8259 62.4581L29.672 60.368L32.6435 59.9366L33.9736 57.2573Z" fill="#FEC12B"/>
<path d="M44.7002 57.2573L46.0303 59.9366L49.0018 60.368L46.854 62.4581L47.3605 65.4048L44.7002 64.0134L42.0399 65.4048L42.5463 62.4581L40.3986 60.368L43.37 59.9366L44.7002 57.2573Z" fill="#FEC12B"/>
<path d="M55.1888 57.2573L56.519 59.9366L59.4904 60.368L57.3366 62.4581L57.8491 65.4048L55.1888 64.0134L52.5285 65.4048L53.035 62.4581L50.8811 60.368L53.8587 59.9366L55.1888 57.2573Z" fill="#FEC12B"/>
<path d="M65.7019 57.2573L67.032 59.9366L70.0035 60.368L67.8557 62.4581L68.3622 65.4048L65.7019 64.0134L63.0416 65.4048L63.548 62.4581L61.4003 60.368L64.3717 59.9366L65.7019 57.2573Z" fill="#4FB84F"/>
<path d="M76.1905 57.2573L77.5207 59.9366L80.4922 60.368L78.3383 62.4581L78.8508 65.4048L76.1905 64.0134L73.5302 65.4048L74.0367 62.4581L71.8828 60.368L74.8604 59.9366L76.1905 57.2573Z" fill="#4FB84F"/>
<path d="M87.387 129.795V106.476C87.387 104.715 85.9409 103.275 84.1714 103.275H4.17965C2.41019 103.275 0.964111 104.715 0.964111 106.476V139.297C0.964111 141.059 2.41019 142.499 4.17965 142.499H84.1714H95.6485L87.387 129.795Z" fill="#4FB84F"/>
<path d="M15.4614 126.362C20.5532 126.362 24.6809 122.252 24.6809 117.182C24.6809 112.112 20.5532 108.001 15.4614 108.001C10.3697 108.001 6.24194 112.112 6.24194 117.182C6.24194 122.252 10.3697 126.362 15.4614 126.362Z" fill="#74C057"/>
<path d="M15.4127 116.671C17.1751 116.671 18.6038 115.249 18.6038 113.494C18.6038 111.739 17.1751 110.316 15.4127 110.316C13.6503 110.316 12.2216 111.739 12.2216 113.494C12.2216 115.249 13.6503 116.671 15.4127 116.671Z" fill="#4FB84F"/>
<path d="M20.5075 122.468H10.4276C10.4276 122.468 9.79308 122.036 10.2263 121.064C10.6595 120.092 11.7029 118.142 11.7029 118.142L11.7151 118.136C11.9591 117.498 12.5693 117.012 13.3198 116.896C13.93 117.267 14.6438 117.486 15.4126 117.486C16.1875 117.486 16.9136 117.267 17.5238 116.89C18.3109 116.975 18.9577 117.473 19.2139 118.136L19.2322 118.148C19.2322 118.148 20.2695 120.098 20.7088 121.07C21.1481 122.042 20.5075 122.468 20.5075 122.468Z" fill="#4FB84F"/>
<path d="M77.1485 126.83H33.3757C31.8686 126.83 30.63 125.603 30.63 124.096C30.63 122.595 31.8625 121.362 33.3757 121.362H77.1485C78.6556 121.362 79.8942 122.589 79.8942 124.096C79.8942 125.603 78.6556 126.83 77.1485 126.83Z" fill="#74C057"/>
<path d="M34.9377 109.271L36.2679 111.951L39.2393 112.382L37.0855 114.472L37.598 117.419L34.9377 116.027L32.2774 117.419L32.7839 114.472L30.6361 112.382L33.6076 111.951L34.9377 109.271Z" fill="#FEC12B"/>
<path d="M45.6643 109.271L46.9944 111.951L49.9659 112.382L47.812 114.472L48.3246 117.419L45.6643 116.027L43.004 117.419L43.5104 114.472L41.3566 112.382L44.3341 111.951L45.6643 109.271Z" fill="#FEC12B"/>
<path d="M56.1468 109.271L57.477 111.951L60.4546 112.382L58.3007 114.472L58.8071 117.419L56.1468 116.027L53.4865 117.419L53.9991 114.472L51.8452 112.382L54.8167 111.951L56.1468 109.271Z" fill="#FEC12B"/>
<path d="M66.666 109.271L67.9961 111.951L70.9676 112.382L68.8138 114.472L69.3263 117.419L66.666 116.027L64.0057 117.419L64.5121 114.472L62.3583 112.382L65.3359 111.951L66.666 109.271Z" fill="#FEC12B"/>
<path d="M77.1485 109.271L78.4787 111.951L81.4563 112.382L79.3024 114.472L79.8088 117.419L77.1485 116.027L74.4883 117.419L75.0008 114.472L72.8469 112.382L75.8184 111.951L77.1485 109.271Z" fill="#4FB84F"/>
<path d="M44.6637 137.061H33.2903C31.8259 137.061 30.63 135.871 30.63 134.412V134.248C30.63 132.79 31.8259 131.599 33.2903 131.599H44.6637C46.128 131.599 47.3239 132.79 47.3239 134.248V134.412C47.3239 135.871 46.128 137.061 44.6637 137.061Z" fill="#74C057"/>
</g>
<defs>
<clipPath id="clip0_1_236">
<rect width="268" height="271" fill="white"/>
</clipPath>
</defs>
</svg>
