<svg width="22" height="22" viewBox="0 0 22 22" fill="none" xmlns="http://www.w3.org/2000/svg">
<g clip-path="url(#clip0_1_817)">
<path d="M1.4082 4.21323C1.80693 5.28175 2.56488 6.0905 3.33861 6.6631" stroke="#4FB84F" stroke-linecap="round" stroke-linejoin="round"/>
<path d="M10.6081 7.70331H7.69312" stroke="#4FB84F" stroke-linecap="round" stroke-linejoin="round"/>
<path d="M15.4527 10.0631C15.2357 10.0631 15.0598 9.88723 15.0598 9.67026C15.0598 9.45329 15.2357 9.2774 15.4527 9.2774" stroke="#4FB84F" stroke-linecap="round" stroke-linejoin="round"/>
<path d="M15.4526 10.0631C15.6696 10.0631 15.8455 9.88723 15.8455 9.67026C15.8455 9.45329 15.6696 9.2774 15.4526 9.2774" stroke="#4FB84F" stroke-linecap="round" stroke-linejoin="round"/>
<path d="M16.6636 2.00598V5.26524C19.1188 6.28824 19.5608 8.03393 19.5608 10.315L20.9358 11.4445V14.9311C20.1254 16.6744 18.6277 17.5829 16.6636 18.2787V19.8255C16.6636 20.2595 16.3117 20.6112 15.8779 20.6112H13.128C12.694 20.6112 12.3423 20.2595 12.3423 19.8255V18.2787H7.40699V19.7027C7.40699 20.1368 7.05521 20.4884 6.62128 20.4884H3.84667C3.41269 20.4884 3.06089 20.1375 3.06094 19.7035C3.06105 18.7515 3.06116 17.235 3.06084 16.9199C3.06076 16.8468 2.91608 16.4453 2.72932 15.8233C2.18241 14.0018 1.27462 10.9277 2.58028 8.03393C3.67486 5.60799 6.32501 3.75736 12.0475 4.07842C12.8692 1.90781 15.0429 1.34126 16.1529 1.39143C16.4689 1.4057 16.6636 1.68971 16.6636 2.00598Z" stroke="#4FB84F" stroke-linecap="round" stroke-linejoin="round"/>
</g>
<defs>
<clipPath id="clip0_1_817">
<rect width="22" height="22" fill="white"/>
</clipPath>
</defs>
</svg>
