<svg width="27" height="21" viewBox="0 0 27 21" fill="none" xmlns="http://www.w3.org/2000/svg">
<path d="M27 6.39616C27.0021 3.93696 24.379 2.39764 22.2784 3.62537C20.689 4.55431 20.2155 6.65902 21.2502 8.1954L18.237 11.9604L15.5274 5.64314C17.3822 4.0596 16.8516 1.0331 14.5722 0.195452C12.2928 -0.642198 9.97424 1.33723 10.3988 3.75844C10.5279 4.49467 10.9075 5.16163 11.4715 5.64314L8.76871 11.957L5.75546 8.19197C7.12209 6.16073 5.80851 3.39054 3.39101 3.20561C0.973519 3.02069 -0.734768 5.55973 0.316089 7.77588C0.779942 8.7541 1.70174 9.42645 2.76359 9.56109L4.39225 19.4746C4.53684 20.3547 5.28749 20.9999 6.16713 21H20.8385C21.7182 20.9999 22.4688 20.3547 22.6134 19.4746L24.2409 9.56565C25.8169 9.36599 26.9998 8.00721 27 6.39616ZM13.5028 1.83245C14.5418 1.83245 15.1912 2.97338 14.6717 3.88612C14.1522 4.79886 12.8535 4.79886 12.3339 3.88612C12.2155 3.67799 12.1531 3.44189 12.1531 3.20156C12.1531 2.44542 12.7574 1.83245 13.5028 1.83245ZM1.8053 6.39616C1.8053 5.34222 2.93006 4.6835 3.82987 5.21047C4.72968 5.73744 4.72968 7.05487 3.82987 7.58184C3.62468 7.702 3.39194 7.76526 3.15501 7.76526C2.40958 7.76526 1.8053 7.1523 1.8053 6.39616ZM23.8507 7.76526C22.8116 7.76526 22.1623 6.62434 22.6818 5.7116C23.2013 4.79886 24.5 4.79886 25.0196 5.7116C25.138 5.91973 25.2004 6.15582 25.2004 6.39616C25.2004 7.1523 24.5961 7.76526 23.8507 7.76526Z" fill="#4FB84F"/>
</svg>
