<svg width="13" height="14" viewBox="0 0 13 14" fill="none" xmlns="http://www.w3.org/2000/svg">
<path fill-rule="evenodd" clip-rule="evenodd" d="M0 1.47894C0 0.738923 0.598908 0.140015 1.33893 0.140015H9.17998C9.5235 0.140015 9.86317 0.271323 10.1172 0.52344L11.8134 2.1517C12.076 2.40516 12.2184 2.75457 12.2184 3.10988V12.5211C12.2184 13.2617 11.6195 13.86 10.8788 13.86H1.33957C0.599958 13.8604 0.000291704 13.2607 0.000641704 12.5211V1.47894H0ZM8.49479 6.06534C8.41896 6.24845 8.24034 6.3678 8.04218 6.36774H6.76398V10.0561C6.76398 10.5589 6.21968 10.8731 5.78428 10.6218C5.58215 10.505 5.45767 10.2894 5.45767 10.0561V6.36774H4.17556C3.79843 6.36745 3.56312 5.959 3.75194 5.63262C3.77329 5.59576 3.79931 5.56186 3.82941 5.53176L5.76269 3.59842C5.95397 3.40744 6.26378 3.40744 6.45505 3.59842L8.38833 5.53176C8.52822 5.67188 8.56998 5.88246 8.49415 6.06534H8.49479Z" fill="white"/>
</svg>
