<svg width="22" height="22" viewBox="0 0 22 22" fill="none" xmlns="http://www.w3.org/2000/svg">
<path d="M10.5417 21.0833C8.75279 21.0833 7.02779 20.5562 5.36667 19.5021C3.70555 18.4479 2.39583 17.242 1.4375 15.8844V19.1667H0V13.4167H5.75V14.8542H2.46771C3.28229 16.084 4.44427 17.1901 5.95365 18.1724C7.46302 19.1547 8.99238 19.6458 10.5417 19.6458C11.7875 19.6458 12.9654 19.4062 14.0755 18.9271C15.1856 18.4479 16.1519 17.7971 16.9745 16.9745C17.7971 16.1519 18.4479 15.1856 18.9271 14.0755C19.4062 12.9654 19.6458 11.7875 19.6458 10.5417H21.0833C21.0833 11.9951 20.8078 13.3607 20.2568 14.6385C19.7057 15.9163 18.951 17.0344 17.9927 17.9927C17.0344 18.951 15.9163 19.7057 14.6385 20.2568C13.3607 20.8078 11.9951 21.0833 10.5417 21.0833ZM9.84688 17.4177V16.124C9.12813 15.9323 8.52519 15.6248 8.03802 15.2016C7.55085 14.7783 7.13958 14.1993 6.80417 13.4646L8.02604 13.0573C8.21771 13.6643 8.5571 14.1434 9.04427 14.4948C9.53144 14.8462 10.0865 15.0219 10.7094 15.0219C11.3482 15.0219 11.8794 14.8661 12.3026 14.5547C12.7259 14.2432 12.9375 13.832 12.9375 13.3208C12.9375 12.7937 12.7378 12.3505 12.3385 11.9911C11.9393 11.6318 11.2045 11.2285 10.1344 10.7812C9.17604 10.382 8.45729 9.95071 7.97813 9.4875C7.49896 9.02429 7.25938 8.40137 7.25938 7.61875C7.25938 6.91596 7.49896 6.317 7.97813 5.82187C8.45729 5.32675 9.09616 5.02325 9.89479 4.91146V3.68958H11.2125V4.91146C11.8195 4.97533 12.3465 5.167 12.7938 5.48646C13.241 5.80592 13.6003 6.24512 13.8719 6.80417L12.7219 7.35521C12.4823 6.908 12.1868 6.57259 11.8354 6.34896C11.484 6.12533 11.0688 6.01354 10.5896 6.01354C9.96667 6.01354 9.47552 6.15729 9.11615 6.44479C8.75677 6.73229 8.57708 7.12363 8.57708 7.61875C8.57708 8.12988 8.78471 8.53717 9.2 8.84063C9.61529 9.14408 10.2861 9.4875 11.2125 9.87083C12.3146 10.334 13.0972 10.8212 13.5604 11.3323C14.0236 11.8434 14.2552 12.5062 14.2552 13.3208C14.2552 13.7201 14.1833 14.0875 14.0396 14.4229C13.8958 14.7583 13.6922 15.0458 13.4286 15.2854C13.1651 15.525 12.8417 15.7206 12.4583 15.8724C12.075 16.0241 11.6438 16.124 11.1646 16.1719V17.4177H9.84688ZM0 10.5417C0 9.08821 0.275521 7.72259 0.826562 6.44479C1.3776 5.167 2.13229 4.04896 3.09063 3.09063C4.04896 2.13229 5.167 1.3776 6.44479 0.826562C7.72259 0.275521 9.08821 0 10.5417 0C12.3305 0 14.0555 0.527084 15.7167 1.58125C17.3778 2.63542 18.6875 3.84134 19.6458 5.19896V1.91667H21.0833V7.66667H15.3333V6.22917H18.6156C17.801 4.99929 16.643 3.89323 15.1417 2.91094C13.6403 1.92865 12.107 1.4375 10.5417 1.4375C9.29583 1.4375 8.1179 1.67708 7.00781 2.15625C5.89773 2.63542 4.93144 3.28628 4.10885 4.10885C3.28628 4.93144 2.63542 5.89773 2.15625 7.00781C1.67708 8.1179 1.4375 9.29583 1.4375 10.5417H0Z" fill="#4FB84F"/>
</svg>
