<svg width="24" height="24" viewBox="0 0 24 24" fill="none" xmlns="http://www.w3.org/2000/svg">
<g clip-path="url(#clip0_1_107)">
<path d="M23.6194 3.05779C24.1292 0.858685 19.911 -0.460777 17.7818 0.148975C16.1225 0.668763 15.6227 1.90826 16.0825 2.94784C15.9243 3.5033 15.9411 4.09404 16.1307 4.6396C16.3203 5.18516 16.6734 5.65901 17.1421 5.99659C17.9785 6.52692 18.9511 6.80265 19.9413 6.79023C20.9316 6.7778 21.897 6.47776 22.7198 5.92662C22.6516 6.17539 22.5342 6.40796 22.3745 6.61056C22.2148 6.81315 22.0161 6.98167 21.7902 7.10614C21.3885 7.41997 20.9304 7.65408 20.4407 7.79586C20.3612 7.80647 20.2891 7.84823 20.2404 7.91197C20.1917 7.9757 20.1702 8.05619 20.1808 8.13572C20.1915 8.21526 20.2332 8.28732 20.297 8.33606C20.3607 8.3848 20.4412 8.40622 20.5207 8.39562C21.3588 8.46275 22.193 8.22492 22.8698 7.72589C23.2205 7.40824 23.4651 6.99051 23.5706 6.52925C23.6761 6.06798 23.6373 5.58545 23.4595 5.14694C23.6453 4.83457 23.7564 4.48349 23.7841 4.1211C23.8119 3.75871 23.7555 3.39481 23.6194 3.05779ZM18.1217 1.18855C19.1758 0.903367 20.2897 0.927658 21.3304 1.25852C23.6694 1.94824 23.3296 3.34767 21.5503 3.74751C18.4016 4.46722 15.4428 2.12817 18.1217 1.18855ZM20.1209 5.64674C19.2935 5.678 18.4707 5.51002 17.7218 5.15694C17.4663 5.03698 17.2468 4.85192 17.0854 4.62032C16.924 4.38872 16.8263 4.11874 16.8022 3.83747C17.7095 4.45959 18.7776 4.80575 19.8773 4.83413C20.9771 4.86251 22.0615 4.5719 22.9997 3.99741C22.8298 5.2469 21.3904 5.61675 20.0809 5.64674H20.1209Z" fill="#4FB84F"/>
<path d="M6.73629 5.82665C7.60593 8.08573 11.7343 8.38561 13.5535 6.6863C13.9152 6.35237 14.1664 5.91604 14.2736 5.43557C14.3807 4.9551 14.3388 4.45338 14.1533 3.9974C14.6631 1.79829 10.4448 0.478828 8.30565 1.08858C6.65632 1.60837 6.15652 2.84786 6.61634 3.88744C6.48613 4.53322 6.52749 5.20184 6.73629 5.82665ZM12.9438 5.99658C11.6943 6.99618 8.00577 6.86623 7.39602 5.24689C7.35216 5.10288 7.31875 4.95589 7.29606 4.80707C8.21257 5.43708 9.29342 5.78508 10.4053 5.80817C11.5173 5.83126 12.6116 5.52843 13.5535 4.93701C13.5302 5.14606 13.464 5.34806 13.3591 5.53037C13.2542 5.71269 13.1128 5.8714 12.9438 5.99658ZM11.8642 2.22812C14.2132 2.91784 13.8634 4.31727 12.0841 4.7271C10.8536 5.00011 9.56638 4.8339 8.44559 4.25729C6.2065 2.90784 8.76546 1.31849 11.8642 2.22812Z" fill="#4FB84F"/>
<path d="M1.71834 12.1941C1.79831 12.1941 4.5172 11.3244 4.59717 11.2944C4.56123 11.3254 4.53239 11.3638 4.51262 11.4069C4.49285 11.45 4.48262 11.4969 4.48262 11.5443C4.48262 11.5918 4.49285 11.6387 4.51262 11.6818C4.53239 11.7249 4.56123 11.7633 4.59717 11.7942C4.85706 12.0741 4.2673 12.7938 4.10737 12.9837C3.80807 13.4725 3.43746 13.9139 3.00781 14.2932C2.68794 14.5031 2.67795 14.1733 2.56799 14.1133C2.45804 14.0533 2.14816 13.4735 1.97823 13.4136C1.8083 13.3536 1.45844 13.6135 1.67836 13.9434C1.89827 14.2732 2.11818 14.5331 2.37807 14.873C4.13735 18.2216 4.28729 18.6614 4.77709 19.1312C4.90394 19.2658 5.06016 19.3691 5.23356 19.4333C5.40695 19.4974 5.59284 19.5207 5.77669 19.5011C7.30606 19.4111 19.641 15.3528 21.5203 14.5031C21.6563 14.452 21.7795 14.3719 21.8813 14.2683C21.9832 14.1647 22.0612 14.0402 22.11 13.9034C22.26 12.9737 17.342 7.76588 15.8126 7.57596C14.813 7.45601 4.31728 10.4948 1.69835 11.5743C1.64271 11.6057 1.59674 11.6518 1.56542 11.7075C1.5341 11.7632 1.51863 11.8264 1.52069 11.8902C1.52275 11.9541 1.54226 12.0162 1.5771 12.0697C1.61195 12.1233 1.66079 12.1663 1.71834 12.1941ZM18.1117 14.5431C18.5872 13.7517 19.1843 13.0399 19.8809 12.434C20.2127 12.769 20.4954 13.1493 20.7206 13.5635C20.0009 13.8634 18.8514 14.2732 18.1117 14.5431ZM10.005 9.83504C10.0949 9.83504 15.2328 8.51557 15.6727 8.57555C16.4323 8.68551 18.6714 11.1445 19.2312 11.7243C17.7018 12.434 17.0721 14.0933 17.352 14.803C16.4623 15.1229 9.53516 17.5419 7.9558 18.0717C7.48599 15.8526 3.83748 15.9026 4.23731 16.8022C4.25505 16.8636 4.29401 16.9168 4.34727 16.9521C4.34727 16.9521 4.97701 17.0121 5.21691 17.1221C5.96997 17.3504 6.65612 17.7587 7.2161 18.3116C6.66691 18.5176 6.09153 18.6454 5.5068 18.6914C5.10696 18.5915 4.78709 17.9017 3.12776 14.9729C5.19692 14.5731 6.12654 11.9742 5.007 11.2644C4.91704 11.1545 4.06738 11.3744 10.005 9.83504Z" fill="#4FB84F"/>
<path d="M9.43522 13.3236C9.86504 13.9534 10.6847 13.8234 11.4344 13.7135C12.6439 13.5235 12.7139 14.0533 11.6743 14.4032C11.3531 14.5147 11.0147 14.5688 10.6747 14.5631C10.5846 14.5538 10.4944 14.5807 10.4241 14.6379C10.3538 14.6951 10.3091 14.7779 10.2999 14.868C10.2906 14.9581 10.3175 15.0483 10.3747 15.1186C10.4318 15.1889 10.5146 15.2336 10.6047 15.2428C11.0716 15.3161 11.5487 15.2889 12.0042 15.1629C12.0042 15.4927 12.8138 16.0725 13.0937 15.9026C13.3736 15.7326 13.0937 14.843 13.0937 14.763V14.6931C14.0134 13.9334 13.3636 12.7838 12.374 12.5639C11.7057 12.5429 11.0368 12.5797 10.3748 12.6739C10.1049 12.364 9.50519 11.8642 11.6843 12.0341C11.7638 12.0461 11.8448 12.0259 11.9095 11.9781C11.9742 11.9303 12.0172 11.8588 12.0292 11.7792C12.0411 11.6997 12.0209 11.6187 11.9731 11.554C11.9253 11.4894 11.8538 11.4463 11.7743 11.4344C11.3905 11.3433 10.9988 11.2897 10.6047 11.2745C10.3948 10.7247 9.60515 10.3548 9.35525 10.4948C9.10535 10.6347 9.35525 11.3944 9.49519 11.6143C9.32121 11.7884 9.19697 12.0058 9.13534 12.2441C9.00539 12.5939 9.24529 12.9938 9.43522 13.3236Z" fill="#4FB84F"/>
<path d="M13.2237 10.065C13.7382 10.579 14.3758 10.9527 15.0757 11.1505C15.7757 11.3482 16.5146 11.3634 17.222 11.1945C17.3122 11.1945 17.3986 11.1587 17.4624 11.0949C17.5261 11.0312 17.5619 10.9448 17.5619 10.8546C17.5619 10.7645 17.5261 10.678 17.4624 10.6143C17.3986 10.5506 17.3122 10.5148 17.222 10.5148C15.9445 10.2813 14.704 9.87788 13.5335 9.31527C13.2037 9.11535 12.524 9.64513 13.2237 10.065Z" fill="#4FB84F"/>
<path d="M3.18776 19.661C3.62498 20.313 4.15733 20.8959 4.76711 21.3903C6.7663 22.4999 19.761 17.292 21.9101 16.4623C21.9842 16.4223 22.0412 16.3568 22.0709 16.2781C22.1006 16.1993 22.1009 16.1125 22.0717 16.0335C22.0426 15.9545 21.9859 15.8887 21.9122 15.8482C21.8384 15.8076 21.7525 15.795 21.6702 15.8126C20.6706 16.1825 6.19653 20.9805 5.22693 20.5007C4.72686 20.1037 4.27706 19.6471 3.88747 19.1412C2.8279 17.8018 1.75834 15.2428 1.24855 15.3028C1.20312 15.3042 1.1586 15.3159 1.11835 15.337C1.07811 15.3581 1.04318 15.3881 1.01622 15.4247C0.989264 15.4612 0.970973 15.5035 0.962733 15.5482C0.954494 15.5929 0.956521 15.6389 0.968661 15.6827C1.64017 17.0457 2.38084 18.3735 3.18776 19.661Z" fill="#4FB84F"/>
<path d="M22.0001 18.0617C20.8906 18.4615 5.7767 23.4295 4.65716 22.9397C4.13344 22.5498 3.66002 22.0965 3.24773 21.5903C2.18817 20.3308 1.29853 18.4915 0.788735 17.9217C0.558828 17.6619 0.138999 17.8018 0.218967 18.1716C0.218967 18.3516 0.668783 18.7914 0.918682 19.2812C1.04863 19.5111 1.14859 19.761 1.25854 20.0009C1.84952 21.1898 2.61801 22.2819 3.53762 23.2396C3.72148 23.5114 3.97891 23.7253 4.27981 23.8563C4.58072 23.9873 4.91268 24.0299 5.23692 23.9793C9.2353 23.7494 18.5415 20.1408 22.23 18.7114C22.3017 18.671 22.3568 18.6066 22.3857 18.5295C22.4146 18.4524 22.4154 18.3676 22.3879 18.29C22.3605 18.2124 22.3065 18.147 22.2356 18.1052C22.1647 18.0634 22.0813 18.048 22.0001 18.0617Z" fill="#4FB84F"/>
</g>
<defs>
<clipPath id="clip0_1_107">
<rect width="24" height="24" fill="white"/>
</clipPath>
</defs>
</svg>
